<?xml version="1.0" standalone="no"?>
<!DOCTYPE svg PUBLIC "-//W3C//DTD SVG 20010904//EN"
 "http://www.w3.org/TR/2001/REC-SVG-20010904/DTD/svg10.dtd">
<svg version="1.0" xmlns="http://www.w3.org/2000/svg"
 width="1158.000000pt" height="1158.000000pt" viewBox="0 0 1158.000000 1158.000000"
 preserveAspectRatio="xMidYMid meet">
<metadata>
Created by potrace 1.11, written by Peter Selinger 2001-2013
</metadata>
<g transform="translate(0.000000,1158.000000) scale(0.100000,-0.100000)"
fill="#000000" stroke="none">
<path d="M2167 10064 c-1 -1 -24 -4 -52 -7 -113 -12 -214 -63 -302 -152 -106
-108 -154 -236 -148 -394 3 -83 19 -165 37 -185 4 -6 8 -16 8 -23 0 -24 65
-117 115 -165 180 -175 501 -185 646 -19 l39 44 0 -76 0 -76 110 1 110 1 0
298 0 299 -238 0 -238 0 0 -82 1 -83 120 -5 120 -5 -3 -30 c-6 -54 -39 -111
-84 -148 -25 -20 -52 -37 -61 -37 -9 0 -18 -4 -21 -9 -8 -13 -81 -24 -147 -23
-74 1 -153 37 -201 90 -49 54 -63 82 -85 172 -2 8 -4 47 -4 86 -1 105 34 198
99 261 113 110 296 103 426 -17 53 -49 45 -51 137 43 l56 59 -21 21 c-69 68
-185 130 -276 147 -54 10 -138 18 -143 14z"/>
<path d="M1016 9845 c-47 -115 -88 -219 -91 -230 -4 -11 -11 -29 -16 -40 -20
-46 -212 -531 -216 -547 -5 -16 5 -18 105 -18 l110 0 37 99 38 99 205 -2 206
-1 39 -97 39 -98 110 0 c84 0 109 3 105 13 -9 22 -152 386 -277 702 -68 171
-126 313 -129 317 -3 3 -45 8 -93 10 l-88 3 -84 -210z m219 -245 c21 -52 43
-108 50 -125 8 -16 16 -42 20 -57 l7 -27 -117 0 c-65 -1 -121 1 -125 4 -4 2
20 74 54 159 34 85 64 152 68 148 3 -4 23 -50 43 -102z"/>
<path d="M2890 10052 l-25 -3 0 -519 0 -520 112 0 113 0 0 302 0 301 112 -219
c61 -120 130 -255 153 -299 l41 -80 69 -3 70 -3 103 203 c196 384 202 395 203
368 0 -14 1 -148 1 -297 l1 -273 113 0 114 0 -3 521 -2 522 -52 -1 c-29 0 -84
-1 -121 -1 l-68 -1 -179 -355 c-98 -195 -180 -353 -181 -352 -1 1 -81 161
-178 355 -97 193 -182 352 -189 353 -46 3 -186 3 -207 1z"/>
<path d="M3743 8870 c-146 -34 -231 -124 -241 -251 -5 -73 9 -116 58 -172 50
-57 110 -95 230 -147 210 -91 236 -110 244 -173 4 -31 0 -42 -28 -71 -74 -79
-237 -55 -368 55 l-47 39 -70 -71 c-39 -38 -71 -74 -71 -78 0 -11 41 -45 102
-85 153 -101 396 -122 549 -48 102 49 162 146 158 255 -5 146 -89 227 -331
321 -135 52 -184 85 -197 132 -21 77 29 120 141 118 54 -1 80 -8 140 -36 40
-20 84 -45 98 -57 l24 -22 71 72 70 71 -40 33 c-126 106 -330 154 -492 115z"/>
<path d="M4655 8875 c-84 -18 -129 -40 -176 -82 -51 -46 -79 -101 -86 -167 -8
-82 11 -131 75 -195 62 -61 110 -89 247 -146 114 -46 193 -93 201 -119 32
-100 -41 -165 -170 -153 -80 8 -116 23 -192 80 l-71 54 -72 -68 c-39 -38 -71
-72 -71 -75 0 -11 50 -53 107 -90 119 -78 310 -111 453 -78 156 36 250 141
250 281 0 146 -78 225 -321 323 -68 28 -140 62 -160 76 -66 46 -71 121 -11
160 66 43 215 15 324 -62 l46 -33 68 71 68 71 -39 33 c-22 19 -65 47 -95 62
-46 24 -67 32 -120 47 -78 21 -184 25 -255 10z"/>
<path d="M7390 8874 c-183 -29 -313 -122 -390 -279 -45 -90 -55 -143 -53 -263
4 -218 137 -403 338 -472 70 -24 113 -31 202 -31 241 -1 440 131 514 341 28
81 35 252 13 327 -51 171 -173 302 -329 354 -48 16 -40 14 -95 22 -85 13 -125
13 -200 1z m214 -200 c70 -24 146 -101 176 -179 48 -128 22 -290 -62 -381
-128 -138 -368 -129 -481 19 -61 81 -84 227 -51 338 18 60 67 133 111 165 28
20 99 50 138 57 37 7 119 -3 169 -19z"/>
<path d="M714 8869 c-2 -4 -3 -45 -3 -93 l1 -86 144 0 c130 0 144 -2 145 -17
0 -10 1 -202 2 -428 l2 -410 100 -1 c55 0 105 3 110 7 7 5 10 151 10 416 -1
224 1 414 3 421 3 9 41 12 142 12 l138 0 4 69 c2 38 1 79 -2 93 l-5 23 -393 0
c-217 0 -396 -3 -398 -6z"/>
<path d="M1601 8870 c-5 -3 -8 -237 -7 -520 l1 -515 100 0 c55 -1 105 1 111 3
8 2 12 64 11 208 0 112 3 207 6 210 3 3 99 6 214 7 l208 1 5 -215 5 -215 110
1 110 0 0 505 c1 278 -1 512 -3 520 -2 12 -23 15 -113 15 l-109 1 0 -213 0
-213 -216 2 -217 3 -1 210 -1 210 -103 0 c-56 1 -106 -2 -111 -5z"/>
<path d="M2610 8353 l0 -523 377 3 378 2 0 90 0 90 -265 5 -265 5 -1 115 c0
63 1 120 3 125 2 6 75 10 196 9 105 0 197 1 203 3 13 5 20 183 7 184 -4 0 -98
1 -208 2 l-200 2 0 110 0 110 253 3 252 2 0 93 0 92 -365 0 -365 0 0 -522z"/>
<path d="M5609 8858 c-6 -10 -55 -132 -110 -271 -55 -138 -105 -263 -110 -277
-89 -214 -185 -467 -179 -473 4 -4 53 -6 109 -5 l102 3 37 95 38 95 205 3 206
2 39 -97 40 -98 107 -3 c67 -2 107 1 107 7 0 12 -398 1020 -407 1030 -2 3 -42
5 -89 6 -73 1 -87 -1 -95 -17z m155 -473 c30 -77 56 -147 58 -155 3 -12 -18
-14 -119 -15 -68 0 -123 3 -123 7 0 8 25 75 45 123 11 26 33 81 66 164 6 13
11 22 13 20 2 -2 29 -67 60 -144z"/>
<path d="M6287 8865 c-2 -5 -3 -239 -3 -520 l1 -510 330 0 329 0 1 90 0 90
-217 3 -218 2 0 428 0 427 -110 0 c-66 0 -111 -4 -113 -10z"/>
<path d="M8139 8860 c-1 -20 -1 -967 0 -1002 l1 -26 110 -1 c107 0 110 1 111
22 0 12 1 165 1 340 1 175 4 314 8 310 4 -4 52 -73 105 -153 194 -287 289
-426 322 -472 l34 -47 115 0 114 0 -2 522 -3 522 -110 0 -110 0 0 -337 c0
-250 -3 -334 -11 -325 -6 7 -54 75 -107 152 -164 242 -264 388 -308 450 l-42
61 -113 -1 c-94 0 -114 -3 -115 -15z"/>
<path d="M9210 8353 l0 -523 112 2 113 3 0 518 c0 340 -3 517 -10 518 -5 1
-56 2 -112 3 l-103 2 0 -523z"/>
<path d="M9570 8353 l0 -523 109 1 c76 0 111 4 113 12 2 7 4 95 4 196 l-1 183
44 39 c24 22 48 38 52 37 4 -2 45 -52 91 -113 46 -60 125 -165 176 -232 l93
-121 131 -1 c105 -1 129 1 121 11 -5 7 -88 117 -183 243 -96 127 -193 255
-217 287 -24 31 -43 58 -43 61 0 7 -19 -12 233 231 114 109 205 202 203 205
-3 4 -65 6 -139 6 l-135 0 -54 -49 c-29 -27 -114 -107 -188 -177 -75 -70 -147
-136 -160 -147 l-25 -20 0 194 c0 125 -3 194 -10 195 -5 1 -56 2 -112 3 l-103
2 0 -523z"/>
<path d="M10620 8873 c-13 -3 -15 -67 -14 -516 1 -281 2 -515 3 -519 0 -4 49
-6 109 -5 l107 2 0 520 0 519 -95 1 c-52 0 -102 -1 -110 -2z"/>
<path d="M7391 7633 c-19 -16 -21 -30 -23 -142 l-3 -124 -122 123 c-142 142
-149 145 -216 79 -75 -74 -74 -75 70 -221 l127 -128 -126 0 c-150 0 -152 -2
-155 -99 -2 -98 2 -101 158 -101 l127 0 -123 -122 c-67 -68 -126 -133 -130
-146 -6 -19 3 -33 48 -79 46 -45 60 -54 79 -48 13 4 78 62 146 128 l122 122 0
-127 c0 -155 2 -158 100 -158 98 0 100 3 100 158 l0 127 123 -122 c67 -66 132
-124 145 -128 19 -6 33 3 77 47 41 41 53 60 50 77 -2 13 -59 78 -126 144
l-122 122 131 5 c72 3 134 9 138 13 5 4 9 40 11 80 3 105 0 107 -156 107
l-126 0 122 123 c66 67 124 132 127 144 6 17 -3 33 -43 72 -76 78 -76 78 -228
-74 l-123 -123 0 128 c0 122 -1 130 -22 144 -32 23 -129 21 -157 -1z m149
-448 c40 -38 39 -90 -2 -134 -26 -28 -34 -31 -73 -27 -90 8 -125 99 -63 163
41 42 92 42 138 -2z"/>
<path d="M8435 7626 c-51 -14 -116 -49 -135 -73 -42 -50 -61 -86 -75 -139 -8
-32 -11 -62 -6 -67 7 -7 124 -38 127 -34 1 1 4 21 8 44 20 152 187 227 288
129 55 -54 71 -173 32 -247 -19 -37 -92 -99 -155 -132 -30 -15 -63 -33 -74
-40 -11 -7 -44 -27 -73 -45 -124 -76 -154 -134 -160 -309 l-4 -122 311 0 311
0 1 30 c1 16 2 39 2 52 l1 22 -249 5 -250 5 3 40 c4 55 18 95 47 128 23 25
142 108 271 187 71 43 125 96 149 146 26 53 30 190 7 259 -21 65 -91 136 -152
154 -57 18 -173 21 -225 7z"/>
<path d="M9176 7624 c-104 -27 -188 -107 -218 -207 -8 -29 -13 -127 -13 -307
0 -229 2 -272 18 -316 46 -132 149 -201 310 -208 65 -3 159 14 205 38 49 25
102 84 130 143 l27 58 0 280 c0 268 -1 282 -23 336 -49 122 -154 190 -302 194
-47 1 -107 -4 -134 -11z m187 -105 c52 -14 102 -61 123 -116 16 -40 18 -81 18
-287 -1 -258 -7 -304 -49 -354 -48 -57 -148 -82 -237 -59 -56 14 -111 71 -128
130 -14 52 -18 476 -5 538 25 120 144 183 278 148z"/>
<path d="M9778 7632 c-27 -3 -28 -6 -28 -57 l0 -53 76 1 c42 1 78 -2 81 -7 3
-4 5 -214 5 -465 l0 -457 64 -2 c54 -1 64 1 65 16 4 83 3 996 -1 1008 -5 12
-28 16 -120 17 -63 1 -127 1 -142 -1z"/>
<path d="M10423 7630 c-59 -12 -112 -42 -162 -90 -168 -163 -123 -491 79 -582
63 -28 176 -35 218 -14 18 9 32 13 32 9 0 -4 -45 -84 -100 -178 -55 -95 -100
-175 -100 -179 0 -3 27 -6 60 -6 l59 0 37 63 c260 440 287 495 299 614 8 88
-47 226 -114 285 -77 68 -204 100 -308 78z m172 -126 c43 -23 87 -78 103 -133
18 -58 9 -173 -18 -217 -46 -78 -100 -110 -181 -111 -71 -1 -135 39 -173 107
-27 48 -31 64 -30 130 1 157 83 251 214 246 25 -1 64 -11 85 -22z"/>
<path d="M3570 7289 c-184 -36 -334 -218 -339 -412 -1 -38 -22 -43 -74 -18
-179 87 -406 29 -529 -134 -69 -91 -42 -124 63 -76 62 28 112 44 174 56 36 6
172 7 200 1 81 -17 129 -33 189 -62 72 -36 104 -42 111 -21 2 6 6 50 9 97 6
99 33 186 88 280 42 75 134 172 197 210 45 28 59 53 41 75 -14 16 -60 18 -130
4z"/>
<path d="M5724 7270 c-40 -13 -81 -52 -183 -175 -45 -55 -92 -111 -104 -125
-12 -14 -65 -77 -117 -140 -52 -63 -105 -126 -116 -140 -12 -14 -185 -221
-384 -460 -199 -239 -379 -455 -400 -480 -21 -25 -111 -133 -200 -240 -130
-156 -167 -194 -184 -192 -28 5 -269 63 -1081 262 -236 58 -482 117 -515 125
-8 2 -118 28 -245 59 -228 55 -309 75 -805 196 -555 136 -520 130 -591 105
-53 -19 -103 -74 -119 -131 -12 -40 -8 -112 7 -137 4 -7 407 -612 895 -1345
489 -733 886 -1337 883 -1342 -3 -4 -36 -19 -73 -32 -55 -19 -88 -23 -187 -23
-131 0 -203 17 -300 70 -48 26 -154 101 -165 116 -3 3 -35 29 -71 56 -134 101
-388 201 -579 228 -25 3 -57 8 -71 10 -14 3 -62 6 -106 7 -67 1 -88 -2 -129
-23 -139 -69 -151 -256 -23 -345 30 -21 54 -26 153 -35 64 -5 158 -21 209 -34
50 -14 100 -27 110 -30 41 -10 165 -78 212 -115 211 -170 340 -242 510 -286
110 -28 275 -38 380 -23 209 29 415 130 612 300 79 68 93 78 178 120 157 78
324 88 480 31 45 -16 101 -42 125 -57 41 -25 174 -129 210 -164 23 -22 138
-95 199 -126 96 -48 229 -90 320 -101 328 -39 609 55 886 297 85 73 159 119
257 155 63 23 89 27 188 28 195 2 317 -50 500 -214 37 -33 222 -160 233 -160
4 0 30 -11 57 -24 121 -58 288 -93 430 -90 270 6 485 93 720 293 47 40 111 88
142 106 141 83 299 112 448 81 84 -17 235 -89 290 -137 19 -16 52 -44 74 -62
21 -18 43 -37 50 -43 34 -31 150 -102 232 -141 220 -104 471 -126 704 -62 108
30 283 119 370 188 185 148 254 186 412 230 83 23 121 29 233 41 44 4 91 13
105 18 137 60 158 254 37 346 -67 51 -208 49 -437 -5 -203 -48 -361 -123 -519
-249 -198 -157 -288 -195 -471 -195 -91 0 -130 5 -185 22 -115 36 -114 34 -45
135 390 574 1725 2589 1732 2616 10 37 6 92 -10 132 -24 62 -113 120 -181 120
-16 0 -141 -27 -278 -61 -136 -33 -357 -87 -490 -119 -133 -33 -252 -61 -265
-64 -21 -4 -1116 -271 -1197 -292 -9 -2 -61 -15 -116 -28 -55 -13 -257 -62
-450 -109 -192 -47 -360 -87 -371 -89 -17 -2 -67 52 -259 282 -130 157 -256
308 -280 335 -23 28 -214 257 -424 510 -211 253 -393 471 -405 485 -12 14 -74
88 -138 165 -63 77 -130 148 -147 158 -37 22 -123 30 -167 17z m351 -850 c505
-607 620 -745 625 -750 3 -3 69 -81 145 -174 77 -93 161 -194 187 -225 26 -31
48 -59 48 -62 0 -3 -21 -10 -47 -17 -27 -6 -122 -29 -213 -51 -91 -22 -257
-62 -370 -90 -178 -43 -240 -56 -359 -76 -138 -23 -484 -23 -601 0 -13 2 -42
7 -65 11 -22 3 -60 10 -85 16 -25 5 -52 11 -60 13 -8 1 -33 8 -55 13 -22 6
-51 13 -65 16 -14 2 -90 21 -170 41 -80 20 -156 39 -170 41 -14 3 -43 10 -65
16 -22 6 -44 11 -50 12 -56 11 -205 51 -205 55 0 6 1219 1472 1267 1524 14 15
27 27 28 25 1 -2 127 -154 280 -338z m-4688 -875 c12 -3 30 -8 40 -10 18 -3
97 -23 603 -146 157 -38 407 -98 555 -134 149 -36 342 -84 430 -105 88 -22
237 -57 330 -80 159 -38 276 -67 1030 -251 160 -39 297 -72 305 -74 35 -7 284
-68 393 -95 153 -39 276 -63 377 -75 25 -3 61 -8 80 -12 55 -9 397 -11 483 -2
191 19 283 36 536 99 108 27 212 52 230 55 19 3 38 8 42 11 4 2 27 8 51 13 24
5 111 26 193 46 160 39 175 43 203 49 9 2 55 14 102 26 47 12 96 24 110 27 14
2 135 31 270 64 135 34 252 62 260 64 9 2 83 20 165 40 83 20 157 38 165 40
18 4 320 77 570 139 465 114 724 176 746 180 14 3 48 12 77 20 29 8 66 17 82
21 17 3 120 27 230 54 110 27 201 48 202 47 1 -1 -327 -495 -730 -1098 l-732
-1096 -30 18 c-55 34 -169 87 -225 105 -30 10 -59 21 -64 25 -7 7 39 87 196
335 80 125 91 196 47 275 -58 103 -198 132 -297 62 -18 -13 -107 -146 -228
-340 l-199 -319 -77 -23 c-142 -41 -328 -149 -448 -260 -50 -46 -143 -108
-203 -135 -91 -41 -150 -53 -256 -53 -166 -1 -300 52 -448 177 -206 174 -355
252 -568 296 -74 15 -261 22 -311 11 -12 -2 -39 -7 -59 -10 -49 -8 -141 -34
-180 -51 -16 -8 -52 -23 -80 -36 -77 -34 -169 -95 -279 -187 -181 -150 -296
-199 -471 -200 -171 -1 -303 51 -455 180 -109 92 -147 120 -225 166 -335 196
-743 191 -1071 -14 l-52 -32 -728 1090 c-401 600 -733 1097 -738 1105 -8 15
-9 15 51 -2z"/>
<path d="M8915 4865 c-110 -39 -162 -187 -99 -286 80 -128 251 -135 337 -13
36 51 46 132 23 186 -45 104 -153 151 -261 113z"/>
<path d="M3680 6546 c-71 -26 -159 -112 -185 -178 -10 -27 -24 -48 -32 -48 -8
0 -34 16 -58 35 -93 77 -235 94 -346 43 -52 -25 -109 -70 -109 -87 0 -15 25
-29 45 -24 52 10 165 9 215 -3 101 -24 214 -88 263 -150 16 -21 39 -26 53 -11
4 4 15 29 25 56 23 68 81 152 139 204 51 46 156 103 209 113 24 5 31 12 31 30
0 19 -8 25 -40 34 -59 16 -148 10 -210 -14z"/>
<path d="M835 2340 c-127 -27 -195 -158 -147 -281 13 -33 68 -88 101 -101 28
-10 52 -14 175 -23 43 -3 82 -7 86 -10 4 -3 25 -7 46 -11 56 -9 202 -62 264
-96 30 -17 80 -51 110 -77 141 -121 261 -192 405 -240 125 -42 191 -53 325
-55 196 -3 414 64 589 184 32 21 96 71 142 110 100 85 172 129 271 166 64 24
88 27 188 28 120 0 135 -2 213 -29 78 -27 221 -114 262 -160 27 -30 124 -102
196 -146 129 -77 286 -132 419 -146 303 -33 586 60 836 273 130 112 184 145
301 186 98 33 268 33 367 -1 110 -38 211 -100 311 -194 100 -92 300 -200 440
-236 353 -92 704 1 1000 264 140 126 301 193 460 193 177 0 307 -57 496 -217
85 -72 182 -135 282 -181 368 -171 800 -105 1125 174 128 110 242 164 418 201
76 16 103 20 207 29 163 15 243 209 136 330 -65 75 -184 87 -409 41 -76 -15
-204 -52 -245 -70 -178 -78 -232 -109 -341 -200 -105 -87 -183 -134 -279 -166
-69 -24 -96 -27 -190 -27 -176 1 -288 49 -471 200 -114 95 -199 151 -294 195
-232 107 -497 125 -730 51 -149 -48 -303 -136 -421 -241 -103 -92 -239 -170
-335 -193 -16 -4 -72 -9 -125 -11 -176 -9 -337 56 -489 196 -25 23 -88 71
-140 106 -140 94 -255 142 -407 171 -323 60 -653 -42 -923 -286 -57 -52 -177
-127 -238 -150 -85 -32 -157 -43 -257 -38 -149 8 -281 66 -422 187 -151 129
-276 203 -424 252 -307 101 -628 54 -909 -134 -38 -26 -144 -110 -160 -127
-17 -18 -93 -72 -141 -99 -94 -52 -164 -72 -279 -78 -119 -6 -190 8 -297 58
-52 24 -187 116 -203 138 -13 18 -121 92 -180 124 -152 83 -362 146 -540 163
-104 10 -143 10 -175 4z"/>
</g>
</svg>
